<?xml version="1.0" standalone="no"?>
<!DOCTYPE svg PUBLIC "-//W3C//DTD SVG 20010904//EN"
 "http://www.w3.org/TR/2001/REC-SVG-20010904/DTD/svg10.dtd">
<svg version="1.0" xmlns="http://www.w3.org/2000/svg"
 width="16.000000pt" height="16.000000pt" viewBox="0 0 16.000000 16.000000"
 preserveAspectRatio="xMidYMid meet">

<g transform="translate(0.000000,16.000000) scale(0.100000,-0.100000)"
fill="#000000" stroke="none">
<path d="M12 148 c-16 -16 -16 -120 0 -136 16 -16 120 -16 136 0 16 16 16 120
0 136 -16 16 -120 16 -136 0z m77 -44 c-14 -18 -24 -11 -15 11 3 9 11 13 16
10 8 -5 7 -11 -1 -21z m-25 -17 l18 -32 16 33 c18 38 30 41 28 8 0 -13 -4 -22
-8 -19 -5 2 -13 -7 -20 -21 -11 -26 -28 -35 -28 -15 0 5 -4 8 -9 4 -5 -3 -13
0 -17 6 -4 8 -3 9 4 5 18 -11 15 19 -3 34 -16 13 -20 30 -7 30 4 0 15 -15 26
-33z"/>
</g>
</svg>
